<svg width="58" height="58" viewBox="0 0 58 58" fill="none" xmlns="http://www.w3.org/2000/svg">
<path d="M29 57.8002C44.9058 57.8002 57.7999 44.906 57.7999 29.0002C57.7999 13.0944 44.9058 0.200195 29 0.200195C13.0942 0.200195 0.199951 13.0944 0.199951 29.0002C0.199951 44.906 13.0942 57.8002 29 57.8002Z" fill="url(#paint0_radial_1044_14976)"/>
<path opacity="0.5" d="M29 57.8002C44.9058 57.8002 57.7999 44.906 57.7999 29.0002C57.7999 13.0944 44.9058 0.200195 29 0.200195C13.0942 0.200195 0.199951 13.0944 0.199951 29.0002C0.199951 44.906 13.0942 57.8002 29 57.8002Z" fill="url(#paint1_radial_1044_14976)"/>
<path d="M10.3001 14.8279C10.2465 15.9799 11.4521 16.7568 13.5953 16.864C15.4171 16.9444 19.4625 16.1407 22.3961 12.7248C22.9319 12.0953 22.1683 11.6934 21.6459 12.0953C19.8777 13.4482 15.2563 15.0824 11.7334 14.5332C10.3268 14.3055 10.3001 14.8279 10.3001 14.8279Z" fill="url(#paint2_linear_1044_14976)"/>
<path d="M11.0635 20.5075C11.1707 20.1726 11.4787 19.9985 11.827 20.0654C13.6086 20.4271 16.636 21.7399 19.5427 23.4143C21.8467 24.7404 24.5258 28.1026 24.2043 29.2413C23.8426 30.5138 20.2527 31.4649 18.7122 31.8132C16.3145 32.3624 13.1666 32.7776 11.5055 32.3088C11.0635 32.1882 10.9161 31.8801 10.9295 31.6256C10.9429 31.2773 11.2376 30.996 11.6931 30.9157C16.5422 29.9512 19.7839 28.7456 19.8374 28.0089C19.8374 28.0089 20.0786 26.8569 17.0244 24.8744C15.1625 23.6688 13.1398 22.6106 11.8806 22.0078C11.1439 21.5657 10.9027 20.9763 11.0635 20.5075Z" fill="url(#paint3_radial_1044_14976)"/>
<path d="M11.8138 20.0654C13.5954 20.4271 16.7299 21.3648 19.5295 23.4143C22.1014 25.2896 24.5126 28.1027 24.1911 29.2413C23.9768 29.978 22.6774 30.6076 21.3245 31.0764C21.2709 31.0898 21.2173 31.1166 21.1637 31.13H21.1504C22.4229 30.1387 23.2132 28.9064 21.7933 27.1248C20.8958 25.9996 18.2436 22.5704 11.0369 20.5075C11.1708 20.1726 11.4789 19.9985 11.8138 20.0654Z" fill="url(#paint4_linear_1044_14976)"/>
<path d="M10.9294 31.626C10.9428 31.2778 11.2375 30.9964 11.693 30.9161C16.5421 29.9516 19.7838 28.746 19.8373 28.0093C19.757 29.255 19.69 29.8846 15.6714 30.7821C12.6842 31.4519 11.2777 31.693 11.5188 32.3226C11.0634 32.1752 10.9294 31.8672 10.9294 31.626Z" fill="url(#paint5_linear_1044_14976)"/>
<path d="M46.9363 20.5075C46.8291 20.1726 46.521 19.9985 46.1728 20.0654C44.3912 20.4271 41.3638 21.7399 38.457 23.4143C36.153 24.7404 33.4739 28.1026 33.7954 29.2413C34.1571 30.5138 37.7471 31.4649 39.2875 31.8132C41.6853 32.3624 44.8332 32.7776 46.4942 32.3088C46.9363 32.1882 47.0836 31.8801 47.0702 31.6256C47.0568 31.2773 46.7621 30.996 46.3067 30.9157C41.4576 29.9512 38.2159 28.7456 38.1623 28.0089C38.1623 28.0089 37.9212 26.8569 40.9753 24.8744C42.8373 23.6688 44.86 22.6106 46.1192 22.0078C46.8559 21.5657 47.097 20.9763 46.9363 20.5075Z" fill="url(#paint6_radial_1044_14976)"/>
<path d="M46.1862 20.0654C44.4047 20.4271 41.2701 21.3648 38.4705 23.4143C35.8986 25.2896 33.4875 28.1027 33.8089 29.2413C34.0233 29.978 35.3226 30.6076 36.6755 31.0764C36.7291 31.0898 36.7827 31.1166 36.8363 31.13H36.8497C35.5771 30.1387 34.7868 28.9064 36.2067 27.1248C37.1042 25.9996 39.7565 22.5704 46.9632 20.5075C46.8292 20.1726 46.5211 19.9985 46.1862 20.0654Z" fill="url(#paint7_linear_1044_14976)"/>
<path d="M47.0703 31.626C47.0569 31.2778 46.7622 30.9964 46.3067 30.9161C41.4576 29.9516 38.2159 28.746 38.1624 28.0093C38.2427 29.255 38.3097 29.8846 42.3283 30.7821C45.3155 31.4519 46.722 31.693 46.4809 32.3226C46.9363 32.1752 47.0703 31.8672 47.0703 31.626Z" fill="url(#paint8_linear_1044_14976)"/>
<path d="M29 39.6631C37.4524 39.6631 40.1583 48.0218 37.573 46.709C34.117 44.9542 31.9336 44.7935 29 44.7935C26.0664 44.7935 23.8829 44.9676 20.4269 46.709C17.8416 48.0218 20.5475 39.6631 29 39.6631Z" fill="#643800"/>
<path d="M28.9998 41.1366C33.9828 41.1366 37.1307 43.9496 38.5105 46.2804C38.5908 44.5926 35.4965 39.6631 28.9998 39.6631C22.5164 39.6631 19.4087 44.5926 19.4891 46.2804C20.8688 43.9496 24.0167 41.1366 28.9998 41.1366Z" fill="url(#paint9_linear_1044_14976)"/>
<path d="M47.6999 14.8279C47.7535 15.9799 46.5479 16.7568 44.4047 16.864C42.5829 16.9444 38.5375 16.1407 35.6039 12.7248C35.0681 12.0953 35.8317 11.6934 36.3541 12.0953C38.1223 13.4482 42.7437 15.0824 46.2666 14.5332C47.6731 14.3055 47.6999 14.8279 47.6999 14.8279Z" fill="url(#paint10_linear_1044_14976)"/>
<defs>
<radialGradient id="paint0_radial_1044_14976" cx="0" cy="0" r="1" gradientUnits="userSpaceOnUse" gradientTransform="translate(23.3335 17.3285) scale(34.7435)">
<stop stop-color="#FFDF30"/>
<stop offset="1" stop-color="#FFB82E"/>
</radialGradient>
<radialGradient id="paint1_radial_1044_14976" cx="0" cy="0" r="1" gradientUnits="userSpaceOnUse" gradientTransform="translate(23.3335 17.3285) scale(27.3342)">
<stop stop-color="#FFE95F"/>
<stop offset="1" stop-color="#FFBB47" stop-opacity="0"/>
</radialGradient>
<linearGradient id="paint2_linear_1044_14976" x1="14.8128" y1="18.0365" x2="16.9118" y2="12.3109" gradientUnits="userSpaceOnUse">
<stop offset="0.00132565" stop-color="#3C2200"/>
<stop offset="1" stop-color="#7A4400"/>
</linearGradient>
<radialGradient id="paint3_radial_1044_14976" cx="0" cy="0" r="1" gradientUnits="userSpaceOnUse" gradientTransform="translate(16.8336 27.6538) rotate(-57.9898) scale(6.77399 4.38218)">
<stop offset="0.00132565" stop-color="#7A4400"/>
<stop offset="1" stop-color="#643800"/>
</radialGradient>
<linearGradient id="paint4_linear_1044_14976" x1="24.5896" y1="27.8703" x2="10.1354" y2="23.762" gradientUnits="userSpaceOnUse">
<stop offset="0.00132565" stop-color="#3C2200"/>
<stop offset="1" stop-color="#512D00"/>
</linearGradient>
<linearGradient id="paint5_linear_1044_14976" x1="19.6556" y1="30.4122" x2="11.0341" y2="29.8453" gradientUnits="userSpaceOnUse">
<stop offset="0.00132565" stop-color="#3C2200"/>
<stop offset="1" stop-color="#512D00"/>
</linearGradient>
<radialGradient id="paint6_radial_1044_14976" cx="0" cy="0" r="1" gradientUnits="userSpaceOnUse" gradientTransform="translate(41.1585 27.6434) rotate(-122.01) scale(6.774 4.38219)">
<stop offset="0.00132565" stop-color="#7A4400"/>
<stop offset="1" stop-color="#643800"/>
</radialGradient>
<linearGradient id="paint7_linear_1044_14976" x1="33.4119" y1="27.8673" x2="47.8661" y2="23.759" gradientUnits="userSpaceOnUse">
<stop offset="0.00132565" stop-color="#3C2200"/>
<stop offset="1" stop-color="#512D00"/>
</linearGradient>
<linearGradient id="paint8_linear_1044_14976" x1="38.3311" y1="30.4113" x2="46.9526" y2="29.8444" gradientUnits="userSpaceOnUse">
<stop offset="0.00132565" stop-color="#3C2200"/>
<stop offset="1" stop-color="#512D00"/>
</linearGradient>
<linearGradient id="paint9_linear_1044_14976" x1="28.9994" y1="37.4781" x2="28.9994" y2="44.1425" gradientUnits="userSpaceOnUse">
<stop offset="0.00132565" stop-color="#3C2200"/>
<stop offset="1" stop-color="#512D00"/>
</linearGradient>
<linearGradient id="paint10_linear_1044_14976" x1="43.1861" y1="18.0388" x2="41.087" y2="12.3132" gradientUnits="userSpaceOnUse">
<stop offset="0.00132565" stop-color="#3C2200"/>
<stop offset="1" stop-color="#7A4400"/>
</linearGradient>
</defs>
</svg>
